<svg width="29" height="29" viewBox="0 0 29 29" fill="none" xmlns="http://www.w3.org/2000/svg">
<g clip-path="url(#clip0_229_1175)">
<path d="M9.1199 26.282C20.0633 26.282 26.0489 17.2154 26.0489 9.35297C26.0489 9.09545 26.0489 8.8391 26.0315 8.5839C27.1959 7.74163 28.2011 6.69876 28.9999 5.5041C27.9141 5.9855 26.7622 6.30106 25.5826 6.44022C26.8247 5.69672 27.7543 4.52717 28.1984 3.14931C27.0305 3.84241 25.7527 4.33084 24.4203 4.5935C23.5232 3.63962 22.3367 3.00798 21.0445 2.79633C19.7523 2.58469 18.4263 2.80483 17.2718 3.42269C16.1173 4.04056 15.1987 5.0217 14.6579 6.2143C14.1172 7.40689 13.9847 8.74444 14.2807 10.02C11.9152 9.90131 9.6011 9.28655 7.48858 8.2156C5.37605 7.14465 3.51233 5.64144 2.0184 3.80354C1.25754 5.11337 1.02451 6.66394 1.36674 8.13955C1.70897 9.61515 2.60074 10.9048 3.86047 11.746C2.91357 11.7183 1.98728 11.4629 1.16 11.0013V11.0767C1.16037 12.4504 1.6359 13.7817 2.50592 14.8447C3.37594 15.9078 4.5869 16.6372 5.93339 16.9092C5.05744 17.1481 4.13838 17.1831 3.24683 17.0113C3.62719 18.1934 4.36743 19.2272 5.36407 19.968C6.36071 20.7088 7.56394 21.1197 8.80554 21.1432C7.57193 22.1128 6.15924 22.8298 4.6483 23.2529C3.13735 23.6761 1.5578 23.7972 0 23.6093C2.72096 25.3554 5.8869 26.2816 9.1199 26.2773" fill="#1DA1F2"/>
</g>
<defs>
<clipPath id="clip0_229_1175">
<rect width="28.2667" height="28.2667" fill="white" transform="scale(1.02594)"/>
</clipPath>
</defs>
</svg>
