<svg width="29" height="29" viewBox="0 0 29 29" fill="none" xmlns="http://www.w3.org/2000/svg">
<path d="M28.9995 14.8215C28.9995 13.6293 28.9007 12.7593 28.6871 11.8571H14.7954V17.2381H22.9495C22.7852 18.5754 21.8974 20.5893 19.9246 21.9425L19.897 22.1227L24.2893 25.4573L24.5936 25.487C27.3883 22.9576 28.9995 19.2359 28.9995 14.8215Z" fill="#4285F4"/>
<path d="M14.7957 29C18.7905 29 22.1442 27.7111 24.5938 25.4879L19.9248 21.9434C18.6754 22.7972 16.9985 23.3933 14.7957 23.3933C10.883 23.3933 7.56217 20.864 6.37839 17.3679L6.20487 17.3824L1.63771 20.8462L1.57798 21.0089C4.01105 25.7455 9.00878 29 14.7957 29Z" fill="#34A853"/>
<path d="M6.3786 17.3678C6.06625 16.4656 5.88548 15.4988 5.88548 14.5C5.88548 13.5011 6.06625 12.5344 6.36216 11.6322L6.35389 11.4401L1.72949 7.92058L1.57819 7.99111C0.575401 9.95667 0 12.1639 0 14.5C0 16.8361 0.575401 19.0432 1.57819 21.0088L6.3786 17.3678Z" fill="#FBBC05"/>
<path d="M14.7957 5.60659C17.5739 5.60659 19.448 6.78269 20.5167 7.76553L24.6924 3.76997C22.1278 1.43389 18.7905 0 14.7957 0C9.00878 0 4.01105 3.2544 1.57798 7.99099L6.36196 11.6321C7.56217 8.13605 10.883 5.60659 14.7957 5.60659Z" fill="#EB4335"/>
</svg>
