<svg width="29" height="29" viewBox="0 0 29 29" fill="none" xmlns="http://www.w3.org/2000/svg">
<g clip-path="url(#clip0_229_1178)">
<path d="M28.9999 14.5C28.9999 6.49185 22.5081 0 14.5 0C6.49185 0 0 6.49185 0 14.5C0 21.7372 5.3024 27.736 12.2343 28.8238V18.6914H8.55272V14.5H12.2343V11.3054C12.2343 7.67139 14.3991 5.66405 17.7112 5.66405C19.2971 5.66405 20.957 5.94725 20.957 5.94725V9.5156H19.1286C17.3275 9.5156 16.7656 10.6334 16.7656 11.7812V14.5H20.7871L20.1442 18.6914H16.7656V28.8238C23.6975 27.736 28.9999 21.7372 28.9999 14.5Z" fill="#1877F2"/>
<path d="M20.1442 18.6914L20.787 14.5H16.7656V11.7813C16.7656 10.6346 17.3274 9.51565 19.1286 9.51565H20.957V5.9473C20.957 5.9473 19.2977 5.66409 17.7112 5.66409C14.3991 5.66409 12.2343 7.67143 12.2343 11.3055V14.5H8.55268V18.6914H12.2343V28.8238C13.7356 29.0587 15.2643 29.0587 16.7656 28.8238V18.6914H20.1442Z" fill="white"/>
</g>
<defs>
<clipPath id="clip0_229_1178">
<rect width="28.2667" height="28.2667" fill="white" transform="scale(1.02594)"/>
</clipPath>
</defs>
</svg>
