<svg width="28" height="28" viewBox="0 0 28 28" fill="none" xmlns="http://www.w3.org/2000/svg">
<path fill-rule="evenodd" clip-rule="evenodd" d="M20.4432 8.62862V10.4175C22.4526 11.0447 23.9167 12.8637 23.9167 15.0364V20.796C23.9167 23.4857 21.6868 25.6665 18.9376 25.6665H9.06371C6.31339 25.6665 4.08349 23.4857 4.08349 20.796V15.0364C4.08349 12.8637 5.54875 11.0447 7.55696 10.4175V8.62862C7.56882 5.15056 10.4495 2.33333 13.9823 2.33333C17.5625 2.33333 20.4432 5.15056 20.4432 8.62862ZM14.0057 4.36218C16.4122 4.36218 18.3682 6.27512 18.3682 8.6286V10.1659H9.63122V8.60542C9.64308 6.26352 11.5991 4.36218 14.0057 4.36218ZM15.0372 19.1973C15.0372 19.7654 14.5748 20.2175 13.9939 20.2175C13.4249 20.2175 12.9626 19.7654 12.9626 19.1973V16.6235C12.9626 16.067 13.4249 15.6149 13.9939 15.6149C14.5748 15.6149 15.0372 16.067 15.0372 16.6235V19.1973Z" fill="#CACACA"/>
</svg>
